<svg xmlns="http://www.w3.org/2000/svg" style="display: none;"><symbol id="triangle" viewBox="0 0 16 16"><title>triangle</title><path fill="#444444" d="M2 1v14l12-7z"/></symbol><symbol id="next" viewBox="0 0 16 16"><title>next</title><path fill="#444444" d="M2 1v14l10-7z"/><path fill="#444444" d="M12 1h2v14h-2v-14z"/></symbol><symbol id="speaker" viewBox="0 0 16 16"><title>speaker</title><path fill="#444444" d="M15 8.5c0 2.3-0.8 4.5-2 6.2l0.7 0.8c1.5-1.9 2.4-4.4 2.4-7 0-3.1-1.2-5.9-3.2-8l-0.5 1c1.6 1.8 2.6 4.3 2.6 7z"/><path fill="#444444" d="M11.8 2.4l-0.5 1c1.1 1.4 1.7 3.2 1.7 5.1 0 1.7-0.5 3.2-1.3 4.6l0.7 0.8c1.1-1.5 1.7-3.4 1.7-5.4-0.1-2.3-0.9-4.4-2.3-6.1z"/><path fill="#444444" d="M10.8 4.4l-0.5 1.1c0.5 0.9 0.8 1.9 0.8 3 0 1-0.3 2-0.7 2.9l0.7 0.9c0.6-1.1 1-2.4 1-3.7-0.1-1.6-0.5-3-1.3-4.2z"/><path fill="#444444" d="M4 5h-4v6h4l5 4v-14z"/></symbol><symbol id="speaker-1" viewBox="0 0 16 16"><title>speaker-1</title><path fill="#444444" d="M4 5h-4v6h4l5 4v-14z"/><path fill="#444444" d="M15.9 5.6l-0.8-0.7-2.3 2.4-2.4-2.4-0.8 0.7 2.4 2.4-2.4 2.4 0.8 0.7 2.4-2.4 2.3 2.4 0.8-0.7-2.4-2.4z"/></symbol><symbol id="next-1" viewBox="0 0 16 16"><title>next-1</title><path fill="#444444" d="M0 1v14l7-7z"/><path fill="#444444" d="M7 1v14l7-7z"/><path fill="#444444" d="M14 1h2v14h-2v-14z"/></symbol><symbol id="back" viewBox="0 0 16 16"><title>back</title><path fill="#444444" d="M16 15v-14l-7 7z"/><path fill="#444444" d="M9 15v-14l-7 7z"/><path fill="#444444" d="M0 1h2v14h-2v-14z"/></symbol><symbol id="back-1" viewBox="0 0 16 16"><title>back-1</title><path fill="#444444" d="M14 15v-14l-10 7z"/><path fill="#444444" d="M2 1h2v14h-2v-14z"/></symbol></svg>